# xmcd
#
# Track frame offsets:
#	150
#	11907
#	24725
#	42317
#	54250
#	65972
#	81677
#	98835
#	110240
#	124085
#	144155
#	156497
#	169740
#	185050
#
# Disc length: 2678 seconds
#
# Revision: 1
# Processed by: cddbd v1.5.2PL0 Copyright (c) Steve Scherf et al.
# Submitted via: audiograbber 1.83.01
#
DISCID=d10a740e
DTITLE=Vaious - Motorcycle Mama
DYEAR=1900
DGENRE=
TTITLE0=Erma Franklin - Piece Of My Heart
TTITLE1=Tony James and The Shondells - Mony Mony
TTITLE2=Dobie Gray - Drift Away
TTITLE3=The Lovin' Spoonful - Summer In The City
TTITLE4=Cher - Gypsies, Tramps and Thieves
TTITLE5=Bob Seger - If I Were A Carpenter
TTITLE6=Bread - Make It With You
TTITLE7=John Lee Hooker - Boom Boom
TTITLE8=Looking Glaas - Brandy
TTITLE9=Eric Burdon - House Of The Rising Sun
TTITLE10=Chuck Berry - No Particular Place To Go
TTITLE11=Donovan - Catch The Wind
TTITLE12=Blues Image - Ride Captain Ride
TTITLE13=Mitch Ryder - Devil With A Blue Dress On and Good Golly Mis Molly
EXTD=
EXTT0=
EXTT1=
EXTT2=
EXTT3=
EXTT4=
EXTT5=
EXTT6=
EXTT7=
EXTT8=
EXTT9=
EXTT10=
EXTT11=
EXTT12=
EXTT13=
PLAYORDER=
